<svg width="19" height="19" viewBox="0 0 19 19" fill="none" xmlns="http://www.w3.org/2000/svg">
<g clip-path="url(#clip0_83_280)">
<path d="M19 2.375H3.35825L3.325 2.09713C3.25696 1.51954 2.97935 0.986996 2.5448 0.600462C2.11026 0.213927 1.549 0.000270586 0.967417 0L0 0V1.58333H0.967417C1.16132 1.58336 1.34848 1.65455 1.49338 1.7834C1.63828 1.91225 1.73085 2.0898 1.75354 2.28237L3.00833 12.9445C3.07638 13.5221 3.35399 14.0547 3.78853 14.4412C4.22307 14.8277 4.78434 15.0414 5.36592 15.0417H15.8333V13.4583H5.36592C5.17189 13.4583 4.98464 13.387 4.83972 13.258C4.6948 13.129 4.6023 12.9512 4.57979 12.7585L4.47608 11.875H17.2868L19 2.375Z" fill="white"/>
<path d="M5.5417 19C6.41615 19 7.12503 18.2912 7.12503 17.4167C7.12503 16.5423 6.41615 15.8334 5.5417 15.8334C4.66726 15.8334 3.95837 16.5423 3.95837 17.4167C3.95837 18.2912 4.66726 19 5.5417 19Z" fill="white"/>
<path d="M13.4583 19C14.3328 19 15.0417 18.2912 15.0417 17.4167C15.0417 16.5423 14.3328 15.8334 13.4583 15.8334C12.5839 15.8334 11.875 16.5423 11.875 17.4167C11.875 18.2912 12.5839 19 13.4583 19Z" fill="white"/>
</g>
<defs>
<clipPath id="clip0_83_280">
<rect width="19" height="19" fill="white"/>
</clipPath>
</defs>
</svg>
