<svg width="12" height="12" viewBox="0 0 12 12" fill="none" xmlns="http://www.w3.org/2000/svg">
<g clip-path="url(#clip0_134_1377)">
<path d="M12 1.5H2.121L2.1 1.3245C2.05702 0.959709 1.88169 0.623366 1.60724 0.379239C1.3328 0.135112 0.978314 0.000170897 0.611 0L0 0V1H0.611C0.733467 1.00002 0.851669 1.04498 0.943186 1.12636C1.0347 1.20774 1.09317 1.31987 1.1075 1.4415L1.9 8.1755C1.94298 8.54029 2.11831 8.87663 2.39276 9.12076C2.6672 9.36489 3.02169 9.49983 3.389 9.5H10V8.5H3.389C3.26646 8.49997 3.14819 8.45494 3.05666 8.37346C2.96513 8.29197 2.90671 8.17972 2.8925 8.058L2.827 7.5H10.918L12 1.5ZM10.082 6.5H2.7095L2.239 2.5H10.8035L10.082 6.5Z" fill="#1C1B1A"/>
<path d="M3.5 12C4.05228 12 4.5 11.5523 4.5 11C4.5 10.4477 4.05228 10 3.5 10C2.94771 10 2.5 10.4477 2.5 11C2.5 11.5523 2.94771 12 3.5 12Z" fill="#1C1B1A"/>
<path d="M8.5 12C9.05228 12 9.5 11.5523 9.5 11C9.5 10.4477 9.05228 10 8.5 10C7.94771 10 7.5 10.4477 7.5 11C7.5 11.5523 7.94771 12 8.5 12Z" fill="#1C1B1A"/>
</g>
<defs>
<clipPath id="clip0_134_1377">
<rect width="12" height="12" fill="white"/>
</clipPath>
</defs>
</svg>
