<svg width="24" height="24" viewBox="0 0 24 24" fill="none" xmlns="http://www.w3.org/2000/svg">
<g clip-path="url(#clip0_2082_314)">
<path d="M23.9988 22.5868L17.7368 16.3248C19.3634 14.3354 20.1632 11.7969 19.9706 9.23432C19.7781 6.67179 18.608 4.28129 16.7024 2.55728C14.7968 0.833269 12.3014 -0.0923492 9.73245 -0.0281174C7.1635 0.0361144 4.71751 1.08528 2.90042 2.90237C1.08333 4.71946 0.0341613 7.16545 -0.0300705 9.7344C-0.0943023 12.3034 0.831316 14.7987 2.55533 16.7043C4.27934 18.61 6.66984 19.7801 9.23237 19.9726C11.7949 20.1651 14.3334 19.3654 16.3228 17.7388L22.5848 24.0008L23.9988 22.5868ZM9.99881 18.0008C8.41655 18.0008 6.86984 17.5316 5.55424 16.6525C4.23865 15.7735 3.21327 14.524 2.60777 13.0622C2.00227 11.6004 1.84384 9.99188 2.15252 8.44004C2.4612 6.88819 3.22313 5.46272 4.34195 4.3439C5.46077 3.22508 6.88623 2.46316 8.43808 2.15448C9.98993 1.84579 11.5985 2.00422 13.0603 2.60972C14.5221 3.21522 15.7715 4.2406 16.6506 5.5562C17.5296 6.87179 17.9988 8.41851 17.9988 10.0008C17.9964 12.1218 17.1528 14.1552 15.653 15.655C14.1533 17.1548 12.1198 17.9984 9.99881 18.0008Z" fill="#1C1B1A"/>
</g>
<defs>
<clipPath id="clip0_2082_314">
<rect width="24" height="24" fill="white"/>
</clipPath>
</defs>
</svg>
