<svg width="1102" height="372" viewBox="0 0 1102 372" fill="none" xmlns="http://www.w3.org/2000/svg">
<path d="M19.4252 298V74.5011H167.406V113.461H66.6786V166.716H157.584V205.676H66.6786V298H19.4252ZM261.749 301.274C244.797 301.274 230.138 297.673 217.77 290.47C205.474 283.195 195.98 273.082 189.287 260.132C182.593 247.109 179.247 232.013 179.247 214.843C179.247 197.527 182.593 182.395 189.287 169.444C195.98 156.422 205.474 146.309 217.77 139.106C230.138 131.831 244.797 128.193 261.749 128.193C278.701 128.193 293.324 131.831 305.619 139.106C317.988 146.309 327.518 156.422 334.212 169.444C340.905 182.395 344.252 197.527 344.252 214.843C344.252 232.013 340.905 247.109 334.212 260.132C327.518 273.082 317.988 283.195 305.619 290.47C293.324 297.673 278.701 301.274 261.749 301.274ZM261.967 265.261C269.679 265.261 276.118 263.078 281.283 258.713C286.449 254.275 290.341 248.237 292.96 240.597C295.652 232.958 296.998 224.264 296.998 214.515C296.998 204.766 295.652 196.072 292.96 188.433C290.341 180.794 286.449 174.756 281.283 170.318C276.118 165.88 269.679 163.661 261.967 163.661C254.183 163.661 247.635 165.88 242.324 170.318C237.086 174.756 233.121 180.794 230.429 188.433C227.81 196.072 226.5 204.766 226.5 214.515C226.5 224.264 227.81 232.958 230.429 240.597C233.121 248.237 237.086 254.275 242.324 258.713C247.635 263.078 254.183 265.261 261.967 265.261ZM450.217 301.274C433.265 301.274 418.606 297.673 406.238 290.47C393.942 283.195 384.448 273.082 377.755 260.132C371.061 247.109 367.715 232.013 367.715 214.843C367.715 197.527 371.061 182.395 377.755 169.444C384.448 156.422 393.942 146.309 406.238 139.106C418.606 131.831 433.265 128.193 450.217 128.193C467.169 128.193 481.792 131.831 494.087 139.106C506.456 146.309 515.986 156.422 522.68 169.444C529.373 182.395 532.72 197.527 532.72 214.843C532.72 232.013 529.373 247.109 522.68 260.132C515.986 273.082 506.456 283.195 494.087 290.47C481.792 297.673 467.169 301.274 450.217 301.274ZM450.435 265.261C458.147 265.261 464.586 263.078 469.751 258.713C474.917 254.275 478.809 248.237 481.428 240.597C484.12 232.958 485.466 224.264 485.466 214.515C485.466 204.766 484.12 196.072 481.428 188.433C478.809 180.794 474.917 174.756 469.751 170.318C464.586 165.88 458.147 163.661 450.435 163.661C442.651 163.661 436.103 165.88 430.792 170.318C425.554 174.756 421.589 180.794 418.897 188.433C416.278 196.072 414.968 204.766 414.968 214.515C414.968 224.264 416.278 232.958 418.897 240.597C421.589 248.237 425.554 254.275 430.792 258.713C436.103 263.078 442.651 265.261 450.435 265.261ZM652.108 130.376V165.298H551.163V130.376H652.108ZM574.08 90.2159H620.569V246.49C620.569 250.783 621.224 254.13 622.534 256.53C623.843 258.859 625.662 260.496 627.99 261.441C630.391 262.387 633.156 262.86 636.284 262.86C638.467 262.86 640.649 262.678 642.832 262.314C645.015 261.878 646.688 261.55 647.852 261.332L655.164 295.927C652.836 296.654 649.562 297.491 645.342 298.437C641.122 299.455 635.993 300.073 629.955 300.292C618.751 300.728 608.929 299.237 600.489 295.817C592.123 292.398 585.611 287.087 580.955 279.884C576.299 272.682 574.007 263.588 574.08 252.602V90.2159ZM819.76 178.175L777.199 180.794C776.471 177.156 774.907 173.882 772.506 170.972C770.105 167.989 766.941 165.625 763.012 163.879C759.156 162.06 754.536 161.151 749.152 161.151C741.95 161.151 735.875 162.678 730.928 165.734C725.98 168.717 723.507 172.718 723.507 177.738C723.507 181.74 725.107 185.123 728.308 187.888C731.51 190.652 737.002 192.871 744.787 194.544L775.125 200.656C791.422 204.002 803.572 209.386 811.575 216.807C819.578 224.228 823.579 233.977 823.579 246.054C823.579 257.04 820.342 266.68 813.867 274.974C807.464 283.267 798.661 289.742 787.457 294.399C776.326 298.982 763.485 301.274 748.934 301.274C726.744 301.274 709.065 296.654 695.897 287.414C682.801 278.102 675.126 265.443 672.87 249.437L718.596 247.036C719.978 253.802 723.325 258.968 728.636 262.533C733.947 266.025 740.749 267.771 749.043 267.771C757.192 267.771 763.739 266.207 768.687 263.078C773.707 259.877 776.253 255.767 776.326 250.747C776.253 246.527 774.471 243.071 770.978 240.379C767.486 237.615 762.102 235.505 754.827 234.05L725.798 228.266C709.429 224.992 697.243 219.317 689.24 211.241C681.31 203.166 677.345 192.871 677.345 180.358C677.345 169.59 680.255 160.314 686.075 152.529C691.968 144.745 700.226 138.743 710.848 134.523C721.542 130.303 734.056 128.193 748.388 128.193C769.56 128.193 786.22 132.668 798.37 141.616C810.593 150.565 817.722 162.751 819.76 178.175ZM852.853 298V130.376H899.343V298H852.853ZM876.207 108.768C869.296 108.768 863.366 106.476 858.419 101.893C853.544 97.2366 851.107 91.671 851.107 85.1959C851.107 78.7936 853.544 73.3007 858.419 68.7172C863.366 64.061 869.296 61.7329 876.207 61.7329C883.119 61.7329 889.012 64.061 893.886 68.7172C898.834 73.3007 901.307 78.7936 901.307 85.1959C901.307 91.671 898.834 97.2366 893.886 101.893C889.012 106.476 883.119 108.768 876.207 108.768ZM1012.97 301.274C995.732 301.274 980.89 297.782 968.45 290.797C956.081 283.74 946.551 273.773 939.857 260.896C933.164 247.946 929.817 232.631 929.817 214.952C929.817 197.709 933.164 182.577 939.857 169.554C946.551 156.531 955.972 146.382 968.122 139.106C980.345 131.831 994.677 128.193 1011.12 128.193C1022.18 128.193 1032.47 129.976 1042 133.541C1051.61 137.033 1059.97 142.307 1067.1 149.365C1074.31 156.422 1079.91 165.298 1083.91 175.992C1087.91 186.614 1089.91 199.055 1089.91 213.315V226.083H948.37V197.273H1046.15C1046.15 190.579 1044.7 184.65 1041.79 179.484C1038.88 174.319 1034.84 170.281 1029.67 167.371C1024.58 164.388 1018.65 162.897 1011.88 162.897C1004.83 162.897 998.57 164.534 993.113 167.808C987.729 171.009 983.51 175.338 980.454 180.794C977.398 186.178 975.834 192.18 975.761 198.801V226.192C975.761 234.486 977.289 241.652 980.345 247.691C983.473 253.729 987.875 258.386 993.55 261.66C999.224 264.934 1005.95 266.57 1013.74 266.57C1018.9 266.57 1023.63 265.843 1027.93 264.388C1032.22 262.933 1035.89 260.75 1038.95 257.84C1042 254.93 1044.33 251.365 1045.93 247.145L1088.93 249.983C1086.75 260.314 1082.27 269.335 1075.51 277.047C1068.81 284.686 1060.16 290.652 1049.53 294.944C1038.98 299.164 1026.8 301.274 1012.97 301.274Z" fill="white"/>
</svg>
