<svg width="830" height="238" viewBox="0 0 830 238" fill="none" xmlns="http://www.w3.org/2000/svg">
<path d="M0.425194 234V10.5011H47.6786V195.04H143.495V234H0.425194ZM203.555 237.274C186.603 237.274 171.943 233.673 159.575 226.47C147.28 219.195 137.786 209.082 131.092 196.132C124.399 183.109 121.052 168.013 121.052 150.843C121.052 133.527 124.399 118.395 131.092 105.444C137.786 92.4216 147.28 82.3089 159.575 75.1063C171.943 67.8309 186.603 64.1932 203.555 64.1932C220.506 64.1932 235.13 67.8309 247.425 75.1063C259.793 82.3089 269.324 92.4216 276.017 105.444C282.711 118.395 286.057 133.527 286.057 150.843C286.057 168.013 282.711 183.109 276.017 196.132C269.324 209.082 259.793 219.195 247.425 226.47C235.13 233.673 220.506 237.274 203.555 237.274ZM203.773 201.261C211.485 201.261 217.924 199.078 223.089 194.713C228.255 190.275 232.147 184.237 234.766 176.597C237.458 168.958 238.804 160.264 238.804 150.515C238.804 140.766 237.458 132.072 234.766 124.433C232.147 116.794 228.255 110.756 223.089 106.318C217.924 101.88 211.485 99.6606 203.773 99.6606C195.989 99.6606 189.441 101.88 184.13 106.318C178.891 110.756 174.926 116.794 172.234 124.433C169.615 132.072 168.306 140.766 168.306 150.515C168.306 160.264 169.615 168.958 172.234 176.597C174.926 184.237 178.891 190.275 184.13 194.713C189.441 199.078 195.989 201.261 203.773 201.261ZM317.989 237.165C307.294 237.165 297.763 235.31 289.397 231.599C281.03 227.816 274.41 222.25 269.535 214.902C264.733 207.481 262.332 198.242 262.332 187.183C262.332 177.871 264.042 170.05 267.462 163.72C270.881 157.391 275.537 152.298 281.43 148.442C287.323 144.586 294.017 141.676 301.51 139.711C309.077 137.747 317.007 136.365 325.301 135.564C335.05 134.546 342.907 133.6 348.873 132.727C354.839 131.781 359.167 130.399 361.859 128.58C364.551 126.761 365.897 124.069 365.897 120.504V119.85C365.897 112.938 363.715 107.591 359.349 103.808C355.057 100.024 348.946 98.1328 341.015 98.1328C332.649 98.1328 325.992 99.988 321.045 103.698C316.097 107.336 312.823 111.92 311.223 117.449L268.226 113.957C270.408 103.771 274.701 94.968 281.103 87.5471C287.505 80.0535 295.763 74.306 305.875 70.3045C316.061 66.2303 327.847 64.1932 341.234 64.1932C350.546 64.1932 359.458 65.2845 367.971 67.4671C376.556 69.6498 384.158 73.0328 390.779 77.6163C397.472 82.1997 402.747 88.0928 406.603 95.2954C410.459 102.425 412.387 110.974 412.387 120.941V234H368.298V210.755H366.988C364.297 215.993 360.695 220.613 356.185 224.615C351.674 228.543 346.254 231.636 339.924 233.891C333.595 236.073 326.283 237.165 317.989 237.165ZM331.303 205.08C338.142 205.08 344.18 203.735 349.418 201.043C354.657 198.278 358.767 194.568 361.75 189.911C364.733 185.255 366.225 179.98 366.225 174.087V156.299C364.769 157.245 362.769 158.118 360.222 158.918C357.749 159.646 354.948 160.337 351.819 160.992C348.691 161.574 345.563 162.12 342.434 162.629C339.306 163.065 336.468 163.465 333.922 163.829C328.465 164.629 323.7 165.903 319.626 167.649C315.552 169.395 312.387 171.759 310.132 174.742C307.876 177.652 306.749 181.29 306.749 185.655C306.749 191.985 309.04 196.823 313.624 200.17C318.28 203.444 324.173 205.08 331.303 205.08ZM492.499 66.3758V101.298H389.044V66.3758H492.499ZM412.725 234V54.2624C412.725 42.1125 415.089 32.0362 419.818 24.0333C424.62 16.0304 431.168 10.0282 439.462 6.02677C447.756 2.02533 457.177 0.0246075 467.727 0.0246075C474.856 0.0246075 481.368 0.570263 487.261 1.66158C493.227 2.75288 497.665 3.73505 500.575 4.60809L492.281 39.5298C490.462 38.9478 488.207 38.4021 485.515 37.8928C482.896 37.3836 480.204 37.1289 477.439 37.1289C470.6 37.1289 465.835 38.7295 463.143 41.9307C460.451 45.0591 459.105 49.4606 459.105 55.1354V234H412.725ZM545.193 237.274C527.95 237.274 513.108 233.782 500.668 226.797C488.299 219.74 478.769 209.773 472.075 196.896C465.382 183.946 462.035 168.631 462.035 150.952C462.035 133.709 465.382 118.577 472.075 105.554C478.769 92.5307 488.19 82.3816 500.34 75.1063C512.563 67.8309 526.895 64.1932 543.338 64.1932C554.396 64.1932 564.691 65.9757 574.221 69.5406C583.825 73.0328 592.192 78.3074 599.321 85.3645C606.524 92.4216 612.126 101.298 616.127 111.992C620.129 122.614 622.13 135.055 622.13 149.315V162.083H480.588V133.273H578.368C578.368 126.579 576.913 120.65 574.003 115.484C571.093 110.319 567.055 106.281 561.89 103.371C556.797 100.388 550.868 98.8967 544.101 98.8967C537.044 98.8967 530.788 100.534 525.331 103.808C519.947 107.009 515.728 111.338 512.672 116.794C509.616 122.178 508.052 128.18 507.979 134.801V162.192C507.979 170.486 509.507 177.652 512.563 183.691C515.691 189.729 520.093 194.386 525.768 197.66C531.442 200.934 538.172 202.57 545.957 202.57C551.122 202.57 555.851 201.843 560.144 200.388C564.436 198.933 568.11 196.75 571.166 193.84C574.221 190.93 576.55 187.365 578.15 183.145L621.147 185.983C618.965 196.314 614.491 205.335 607.724 213.047C601.031 220.686 592.373 226.652 581.751 230.944C571.202 235.164 559.016 237.274 545.193 237.274ZM606.371 234V66.3758H651.442V95.6228H653.188C656.244 85.219 661.373 77.3616 668.576 72.0506C675.778 66.6669 684.072 63.975 693.457 63.975C695.785 63.975 698.295 64.1205 700.987 64.4115C703.679 64.7025 706.044 65.1027 708.081 65.6119V106.863C705.898 106.208 702.879 105.626 699.023 105.117C695.167 104.608 691.638 104.353 688.437 104.353C681.598 104.353 675.487 105.845 670.103 108.828C664.792 111.738 660.573 115.812 657.444 121.05C654.389 126.288 652.861 132.327 652.861 139.166V234H606.371ZM825.489 114.175L782.928 116.794C782.2 113.156 780.636 109.882 778.235 106.972C775.834 103.989 772.669 101.625 768.741 99.8788C764.885 98.06 760.265 97.1506 754.881 97.1506C747.679 97.1506 741.604 98.6784 736.656 101.734C731.709 104.717 729.236 108.718 729.236 113.738C729.236 117.74 730.836 121.123 734.037 123.888C737.238 126.652 742.731 128.871 750.516 130.544L780.854 136.656C797.151 140.002 809.301 145.386 817.304 152.807C825.307 160.228 829.308 169.977 829.308 182.054C829.308 193.04 826.071 202.68 819.595 210.974C813.193 219.267 804.39 225.742 793.186 230.399C782.055 234.982 769.214 237.274 754.663 237.274C732.473 237.274 714.794 232.654 701.626 223.414C688.53 214.102 680.854 201.443 678.599 185.437L724.325 183.036C725.707 189.802 729.054 194.968 734.365 198.533C739.676 202.025 746.478 203.771 754.772 203.771C762.92 203.771 769.468 202.207 774.416 199.078C779.436 195.877 781.982 191.767 782.055 186.747C781.982 182.527 780.199 179.071 776.707 176.379C773.215 173.615 767.831 171.505 760.556 170.05L731.527 164.266C715.158 160.992 702.972 155.317 694.969 147.241C687.039 139.166 683.073 128.871 683.073 116.358C683.073 105.59 685.984 96.3139 691.804 88.5293C697.697 80.7447 705.954 74.7425 716.576 70.5228C727.271 66.3031 739.785 64.1932 754.117 64.1932C775.289 64.1932 791.949 68.6676 804.099 77.6163C816.322 86.565 823.451 98.7512 825.489 114.175Z" fill="#F97E2F"/>
</svg>
