<svg width="69" height="16" viewBox="0 0 69 16" fill="none" xmlns="http://www.w3.org/2000/svg">
<path d="M0.233905 15V0.803156H9.63377V3.2779H3.23548V6.66074H9.00988V9.13548H3.23548V15H0.233905ZM40.4225 4.35237V6.57062H34.0103V4.35237H40.4225ZM35.4661 1.80137H38.4191V11.7281C38.4191 12.0007 38.4607 12.2133 38.5439 12.3658C38.6271 12.5137 38.7426 12.6177 38.8905 12.6778C39.043 12.7378 39.2186 12.7679 39.4173 12.7679C39.556 12.7679 39.6946 12.7563 39.8333 12.7332C39.9719 12.7055 40.0782 12.6847 40.1521 12.6708L40.6166 14.8683C40.4687 14.9145 40.2607 14.9677 39.9927 15.0277C39.7247 15.0924 39.3988 15.1317 39.0153 15.1456C38.3036 15.1733 37.6797 15.0786 37.1436 14.8614C36.6122 14.6442 36.1985 14.3068 35.9028 13.8493C35.607 13.3918 35.4614 12.8141 35.4661 12.1163V1.80137ZM51.0718 7.38861L48.3683 7.55498C48.3221 7.32391 48.2228 7.11595 48.0703 6.93109C47.9178 6.74161 47.7167 6.59142 47.4672 6.48051C47.2222 6.36497 46.9288 6.30721 46.5868 6.30721C46.1293 6.30721 45.7434 6.40425 45.4292 6.59835C45.1149 6.78783 44.9578 7.042 44.9578 7.36088C44.9578 7.61505 45.0594 7.82995 45.2628 8.00556C45.4661 8.18117 45.815 8.32212 46.3095 8.42841L48.2366 8.81661C49.2718 9.02919 50.0436 9.37117 50.5519 9.84255C51.0603 10.3139 51.3145 10.9332 51.3145 11.7003C51.3145 12.3982 51.1088 13.0105 50.6975 13.5373C50.2908 14.0642 49.7316 14.4755 49.02 14.7712C48.3129 15.0624 47.4972 15.208 46.5729 15.208C45.1634 15.208 44.0404 14.9145 43.204 14.3276C42.3721 13.7361 41.8846 12.9319 41.7413 11.9152L44.6458 11.7627C44.7336 12.1925 44.9462 12.5206 45.2836 12.7471C45.6209 12.9689 46.053 13.0798 46.5799 13.0798C47.0975 13.0798 47.5134 12.9805 47.8276 12.7817C48.1465 12.5784 48.3083 12.3173 48.3129 11.9984C48.3083 11.7304 48.195 11.5109 47.9732 11.3399C47.7514 11.1643 47.4094 11.0302 46.9473 10.9378L45.1033 10.5704C44.0635 10.3625 43.2895 10.002 42.7811 9.48902C42.2774 8.97605 42.0255 8.32212 42.0255 7.52725C42.0255 6.84328 42.2104 6.25406 42.5801 5.75957C42.9544 5.26509 43.4789 4.88382 44.1537 4.61578C44.833 4.34775 45.6279 4.21373 46.5383 4.21373C47.8831 4.21373 48.9414 4.49794 49.7132 5.06637C50.4896 5.6348 50.9424 6.40888 51.0718 7.38861ZM53.174 15V4.35237H56.127V15H53.174ZM54.6575 2.97982C54.2184 2.97982 53.8418 2.83425 53.5275 2.5431C53.2179 2.24733 53.0631 1.8938 53.0631 1.4825C53.0631 1.07582 53.2179 0.726903 53.5275 0.435757C53.8418 0.139989 54.2184 -0.00789483 54.6575 -0.00789483C55.0965 -0.00789483 55.4708 0.139989 55.7804 0.435757C56.0947 0.726903 56.2518 1.07582 56.2518 1.4825C56.2518 1.8938 56.0947 2.24733 55.7804 2.5431C55.4708 2.83425 55.0965 2.97982 54.6575 2.97982ZM63.345 15.208C62.2498 15.208 61.307 14.9861 60.5168 14.5425C59.7311 14.0942 59.1257 13.4611 58.7006 12.6431C58.2754 11.8205 58.0628 10.8477 58.0628 9.72471C58.0628 8.62944 58.2754 7.6682 58.7006 6.84097C59.1257 6.01375 59.7242 5.36907 60.496 4.90693C61.2724 4.44479 62.1828 4.21373 63.2272 4.21373C63.9296 4.21373 64.5836 4.32695 65.189 4.5534C65.799 4.77522 66.3304 5.11027 66.7833 5.55854C67.2409 6.00682 67.5967 6.57062 67.8509 7.24996C68.1051 7.92468 68.2321 8.71494 68.2321 9.62073V10.4318H59.2413V8.60171H65.4524C65.4524 8.17655 65.36 7.79991 65.1751 7.47179C64.9903 7.14367 64.7338 6.88719 64.4056 6.70233C64.0822 6.51286 63.7055 6.41812 63.2757 6.41812C62.8275 6.41812 62.43 6.5221 62.0834 6.73006C61.7414 6.9334 61.4734 7.20837 61.2793 7.55498C61.0852 7.89696 60.9858 8.27822 60.9812 8.69876V10.4387C60.9812 10.9655 61.0783 11.4207 61.2724 11.8043C61.4711 12.1879 61.7507 12.4837 62.1111 12.6916C62.4716 12.8996 62.8991 13.0036 63.3936 13.0036C63.7217 13.0036 64.0221 12.9574 64.2947 12.8649C64.5674 12.7725 64.8008 12.6339 64.9949 12.449C65.189 12.2641 65.3369 12.0377 65.4385 11.7697L68.1698 11.9499C68.0311 12.6061 67.7469 13.1792 67.3171 13.669C66.8919 14.1543 66.342 14.5332 65.6673 14.8059C64.9972 15.0739 64.2231 15.208 63.345 15.208Z" fill="#0A0A0A"/>
<path d="M15.6265 15.208C14.5497 15.208 13.6185 14.9792 12.8329 14.5217C12.0519 14.0596 11.4488 13.4172 11.0236 12.5946C10.5985 11.7674 10.3859 10.8084 10.3859 9.71778C10.3859 8.61789 10.5985 7.65665 11.0236 6.83404C11.4488 6.00682 12.0519 5.36445 12.8329 4.90693C13.6185 4.44479 14.5497 4.21373 15.6265 4.21373C16.7033 4.21373 17.6322 4.44479 18.4132 4.90693C19.1988 5.36445 19.8042 6.00682 20.2294 6.83404C20.6546 7.65665 20.8672 8.61789 20.8672 9.71778C20.8672 10.8084 20.6546 11.7674 20.2294 12.5946C19.8042 13.4172 19.1988 14.0596 18.4132 14.5217C17.6322 14.9792 16.7033 15.208 15.6265 15.208ZM15.6404 12.9204C16.1303 12.9204 16.5392 12.7817 16.8674 12.5045C17.1955 12.2226 17.4427 11.839 17.6091 11.3537C17.7801 10.8685 17.8656 10.3162 17.8656 9.69698C17.8656 9.07772 17.7801 8.52546 17.6091 8.04022C17.4427 7.55498 17.1955 7.1714 16.8674 6.8895C16.5392 6.60759 16.1303 6.46664 15.6404 6.46664C15.1459 6.46664 14.73 6.60759 14.3926 6.8895C14.0599 7.1714 13.808 7.55498 13.637 8.04022C13.4707 8.52546 13.3875 9.07772 13.3875 9.69698C13.3875 10.3162 13.4707 10.8685 13.637 11.3537C13.808 11.839 14.0599 12.2226 14.3926 12.5045C14.73 12.7817 15.1459 12.9204 15.6404 12.9204ZM27.5982 15.208C26.5214 15.208 25.5902 14.9792 24.8046 14.5217C24.0236 14.0596 23.4205 13.4172 22.9953 12.5946C22.5701 11.7674 22.3576 10.8084 22.3576 9.71778C22.3576 8.61789 22.5701 7.65665 22.9953 6.83404C23.4205 6.00682 24.0236 5.36445 24.8046 4.90693C25.5902 4.44479 26.5214 4.21373 27.5982 4.21373C28.675 4.21373 29.6039 4.44479 30.3849 4.90693C31.1705 5.36445 31.7759 6.00682 32.2011 6.83404C32.6262 7.65665 32.8388 8.61789 32.8388 9.71778C32.8388 10.8084 32.6262 11.7674 32.2011 12.5946C31.7759 13.4172 31.1705 14.0596 30.3849 14.5217C29.6039 14.9792 28.675 15.208 27.5982 15.208ZM27.612 12.9204C28.1019 12.9204 28.5109 12.7817 28.839 12.5045C29.1671 12.2226 29.4144 11.839 29.5808 11.3537C29.7517 10.8685 29.8372 10.3162 29.8372 9.69698C29.8372 9.07772 29.7517 8.52546 29.5808 8.04022C29.4144 7.55498 29.1671 7.1714 28.839 6.8895C28.5109 6.60759 28.1019 6.46664 27.612 6.46664C27.1176 6.46664 26.7016 6.60759 26.3643 6.8895C26.0315 7.1714 25.7797 7.55498 25.6087 8.04022C25.4423 8.52546 25.3591 9.07772 25.3591 9.69698C25.3591 10.3162 25.4423 10.8685 25.6087 11.3537C25.7797 11.839 26.0315 12.2226 26.3643 12.5045C26.7016 12.7817 27.1176 12.9204 27.612 12.9204Z" fill="white"/>
</svg>
