<svg width="690" height="372" viewBox="0 0 690 372" fill="none" xmlns="http://www.w3.org/2000/svg">
<path d="M19.4252 74.5011H77.7008L139.25 224.664H141.869L203.419 74.5011H261.694V298H215.86V152.529H214.005L156.165 296.909H124.954L67.1151 151.984H65.2599V298H19.4252V74.5011Z" fill="#F97E2F"/>
<path d="M322.943 301.274C305.701 301.274 290.859 297.782 278.418 290.797C266.05 283.74 256.519 273.773 249.826 260.896C243.133 247.946 239.786 232.631 239.786 214.952C239.786 197.709 243.133 182.577 249.826 169.554C256.519 156.531 265.941 146.382 278.091 139.106C290.313 131.831 304.646 128.193 321.088 128.193C332.147 128.193 342.441 129.976 351.972 133.541C361.575 137.033 369.942 142.307 377.072 149.365C384.275 156.422 389.877 165.298 393.878 175.992C397.88 186.614 399.88 199.055 399.88 213.315V226.083H258.338V197.273H356.119C356.119 190.579 354.664 184.65 351.754 179.484C348.844 174.319 344.806 170.281 339.64 167.371C334.548 164.388 328.618 162.897 321.852 162.897C314.795 162.897 308.538 164.534 303.082 167.808C297.698 171.009 293.478 175.338 290.423 180.794C287.367 186.178 285.803 192.18 285.73 198.801V226.192C285.73 234.486 287.258 241.652 290.313 247.691C293.442 253.729 297.843 258.386 303.518 261.66C309.193 264.934 315.923 266.57 323.707 266.57C328.873 266.57 333.602 265.843 337.894 264.388C342.187 262.933 345.861 260.75 348.916 257.84C351.972 254.93 354.3 251.365 355.901 247.145L398.898 249.983C396.715 260.314 392.241 269.335 385.475 277.047C378.782 284.686 370.124 290.652 359.502 294.944C348.953 299.164 336.767 301.274 322.943 301.274Z" fill="#F97E2F"/>
<path d="M423.042 201.092V298H376.552V130.376H420.859V159.95H422.823C426.534 150.201 432.754 142.489 441.485 136.815C450.215 131.067 460.801 128.193 473.242 128.193C484.882 128.193 495.031 130.74 503.689 135.832C512.347 140.925 519.076 148.2 523.878 157.658C528.68 167.044 531.081 178.248 531.081 191.271V298H484.591V199.564C484.664 189.306 482.045 181.303 476.734 175.556C471.423 169.736 464.111 166.825 454.799 166.825C448.542 166.825 443.013 168.171 438.211 170.863C433.482 173.555 429.771 177.484 427.079 182.649C424.46 187.742 423.114 193.89 423.042 201.092Z" fill="#F97E2F"/>
<path d="M512.915 144.345V120.772C512.915 114.079 514.225 107.24 516.844 100.256C519.463 93.2715 522.919 86.6873 527.211 80.5033C531.504 74.3192 536.16 69.1537 541.18 65.0068L561.696 77.1203C557.622 83.5226 554.276 90.2159 551.656 97.2002C549.11 104.185 547.837 111.969 547.837 120.554V144.345H512.915Z" fill="#F97E2F"/>
<path d="M675.021 178.175L632.46 180.794C631.732 177.156 630.168 173.882 627.767 170.972C625.366 167.989 622.202 165.625 618.273 163.879C614.417 162.06 609.797 161.151 604.413 161.151C597.211 161.151 591.136 162.678 586.189 165.734C581.241 168.717 578.768 172.718 578.768 177.738C578.768 181.74 580.368 185.123 583.569 187.888C586.771 190.652 592.264 192.871 600.048 194.544L630.386 200.656C646.683 204.002 658.833 209.386 666.836 216.807C674.839 224.228 678.84 233.977 678.84 246.054C678.84 257.04 675.603 266.68 669.128 274.974C662.725 283.267 653.922 289.742 642.718 294.399C631.587 298.982 618.746 301.274 604.195 301.274C582.005 301.274 564.326 296.654 551.158 287.414C538.062 278.102 530.387 265.443 528.131 249.437L573.857 247.036C575.239 253.802 578.586 258.968 583.897 262.533C589.208 266.025 596.01 267.771 604.304 267.771C612.453 267.771 619 266.207 623.948 263.078C628.968 259.877 631.514 255.767 631.587 250.747C631.514 246.527 629.732 243.071 626.239 240.379C622.747 237.615 617.364 235.505 610.088 234.05L581.059 228.266C564.69 224.992 552.504 219.317 544.501 211.241C536.571 203.166 532.606 192.871 532.606 180.358C532.606 169.59 535.516 160.314 541.336 152.529C547.229 144.745 555.487 138.743 566.109 134.523C576.803 130.303 589.317 128.193 603.649 128.193C624.821 128.193 641.481 132.668 653.631 141.616C665.854 150.565 672.984 162.751 675.021 178.175Z" fill="#F97E2F"/>
</svg>
