<svg width="926" height="372" viewBox="0 0 926 372" fill="none" xmlns="http://www.w3.org/2000/svg">
<path d="M19.4252 74.5011H77.7008L139.25 224.664H141.869L203.419 74.5011H261.694V298H215.86V152.529H214.005L156.165 296.909H124.954L67.1151 151.984H65.2599V298H19.4252V74.5011Z" fill="#F97E2F"/>
<path d="M381.943 301.274C364.701 301.274 349.859 297.782 337.418 290.797C325.05 283.74 315.519 273.773 308.826 260.896C302.133 247.946 298.786 232.631 298.786 214.952C298.786 197.709 302.133 182.577 308.826 169.554C315.519 156.531 324.941 146.382 337.091 139.106C349.313 131.831 363.646 128.193 380.088 128.193C391.147 128.193 401.441 129.976 410.972 133.541C420.575 137.033 428.942 142.307 436.072 149.365C443.275 156.422 448.877 165.298 452.878 175.992C456.88 186.614 458.88 199.055 458.88 213.315V226.083H317.338V197.273H415.119C415.119 190.579 413.664 184.65 410.754 179.484C407.844 174.319 403.806 170.281 398.64 167.371C393.548 164.388 387.618 162.897 380.852 162.897C373.795 162.897 367.538 164.534 362.082 167.808C356.698 171.009 352.478 175.338 349.423 180.794C346.367 186.178 344.803 192.18 344.73 198.801V226.192C344.73 234.486 346.258 241.652 349.313 247.691C352.442 253.729 356.843 258.386 362.518 261.66C368.193 264.934 374.923 266.57 382.707 266.57C387.873 266.57 392.602 265.843 396.894 264.388C401.187 262.933 404.861 260.75 407.916 257.84C410.972 254.93 413.3 251.365 414.901 247.145L457.898 249.983C455.715 260.314 451.241 269.335 444.475 277.047C437.782 284.686 429.124 290.652 418.502 294.944C407.953 299.164 395.767 301.274 381.943 301.274Z" fill="#F97E2F"/>
<path d="M541.042 201.092V298H494.552V130.376H538.859V159.95H540.823C544.534 150.201 550.754 142.489 559.485 136.815C568.215 131.067 578.801 128.193 591.242 128.193C602.882 128.193 613.031 130.74 621.689 135.832C630.347 140.925 637.076 148.2 641.878 157.658C646.68 167.044 649.081 178.248 649.081 191.271V298H602.591V199.564C602.664 189.306 600.045 181.303 594.734 175.556C589.423 169.736 582.111 166.825 572.799 166.825C566.542 166.825 561.013 168.171 556.211 170.863C551.482 173.555 547.771 177.484 545.079 182.649C542.46 187.742 541.114 193.89 541.042 201.092Z" fill="#F97E2F"/>
<path d="M689.915 144.345V120.772C689.915 114.079 691.225 107.24 693.844 100.256C696.463 93.2715 699.919 86.6873 704.211 80.5033C708.504 74.3192 713.16 69.1537 718.18 65.0068L738.696 77.1203C734.622 83.5226 731.276 90.2159 728.656 97.2002C726.11 104.185 724.837 111.969 724.837 120.554V144.345H689.915Z" fill="#F97E2F"/>
<path d="M911.021 178.175L868.46 180.794C867.732 177.156 866.168 173.882 863.767 170.972C861.366 167.989 858.202 165.625 854.273 163.879C850.417 162.06 845.797 161.151 840.413 161.151C833.211 161.151 827.136 162.678 822.189 165.734C817.241 168.717 814.768 172.718 814.768 177.738C814.768 181.74 816.368 185.123 819.569 187.888C822.771 190.652 828.264 192.871 836.048 194.544L866.386 200.656C882.683 204.002 894.833 209.386 902.836 216.807C910.839 224.228 914.84 233.977 914.84 246.054C914.84 257.04 911.603 266.68 905.128 274.974C898.725 283.267 889.922 289.742 878.718 294.399C867.587 298.982 854.746 301.274 840.195 301.274C818.005 301.274 800.326 296.654 787.158 287.414C774.062 278.102 766.387 265.443 764.131 249.437L809.857 247.036C811.239 253.802 814.586 258.968 819.897 262.533C825.208 266.025 832.01 267.771 840.304 267.771C848.453 267.771 855 266.207 859.948 263.078C864.968 259.877 867.514 255.767 867.587 250.747C867.514 246.527 865.732 243.071 862.239 240.379C858.747 237.615 853.364 235.505 846.088 234.05L817.059 228.266C800.69 224.992 788.504 219.317 780.501 211.241C772.571 203.166 768.606 192.871 768.606 180.358C768.606 169.59 771.516 160.314 777.336 152.529C783.229 144.745 791.487 138.743 802.109 134.523C812.803 130.303 825.317 128.193 839.649 128.193C860.821 128.193 877.481 132.668 889.631 141.616C901.854 150.565 908.984 162.751 911.021 178.175Z" fill="#F97E2F"/>
</svg>
